<svg width="44" height="48" viewBox="0 0 44 48" fill="none" xmlns="http://www.w3.org/2000/svg">
<path d="M8 3C8 1.34315 9.34315 0 11 0H33.1429L39.0345 5.89164L43.4286 10.2857V45C43.4286 46.6569 42.0854 48 40.4286 48H11C9.34314 48 8 46.6569 8 45V3Z" fill="#ECEDEE"/>
<path d="M33.1429 0L43.4286 10.2857H36.1429C34.486 10.2857 33.1429 8.94257 33.1429 7.28571V0Z" fill="black" fill-opacity="0.2"/>
<rect y="8" width="30.8571" height="14.8571" rx="2" fill="#3E63DD"/>
<path d="M4.42334 18.1333C4.01318 18.1333 3.65771 18.0741 3.35693 17.9556C3.05615 17.8348 2.82031 17.665 2.64941 17.4463C2.48079 17.2253 2.38737 16.9621 2.36914 16.6567L2.36572 16.5952H3.56543L3.56885 16.626C3.58024 16.7262 3.62354 16.8162 3.69873 16.896C3.77393 16.9735 3.87533 17.035 4.00293 17.0806C4.13053 17.1261 4.27751 17.1489 4.44385 17.1489C4.60791 17.1489 4.75033 17.1261 4.87109 17.0806C4.99186 17.035 5.08529 16.9712 5.15137 16.8892C5.21973 16.8071 5.25391 16.7148 5.25391 16.6123V16.6089C5.25391 16.4699 5.19352 16.3628 5.07275 16.2876C4.95199 16.2124 4.74691 16.1463 4.45752 16.0894L3.94824 15.9902C3.42871 15.8877 3.04932 15.7145 2.81006 15.4707C2.57308 15.2269 2.45459 14.9124 2.45459 14.5273V14.5239C2.45687 14.2026 2.54232 13.9235 2.71094 13.6865C2.87956 13.4473 3.11084 13.2627 3.40479 13.1328C3.69873 13.0007 4.03483 12.9346 4.41309 12.9346C4.82552 12.9346 5.17415 12.9995 5.45898 13.1294C5.74609 13.257 5.96826 13.4336 6.12549 13.6592C6.28271 13.8825 6.37386 14.14 6.39893 14.4316L6.40234 14.4727H5.24023L5.2334 14.4351C5.21517 14.3302 5.17074 14.2402 5.1001 14.165C5.03174 14.0876 4.93945 14.0272 4.82324 13.9839C4.70703 13.9406 4.57259 13.9189 4.41992 13.9189C4.27181 13.9189 4.14421 13.9406 4.03711 13.9839C3.93001 14.0249 3.84684 14.083 3.7876 14.1582C3.73063 14.2311 3.70215 14.3166 3.70215 14.4146V14.418C3.70215 14.5592 3.76139 14.672 3.87988 14.7563C4.00065 14.8384 4.19434 14.9045 4.46094 14.9546L4.97021 15.0537C5.32113 15.1221 5.60938 15.2166 5.83496 15.3374C6.06055 15.4582 6.22689 15.612 6.33398 15.7988C6.44336 15.9857 6.49805 16.2124 6.49805 16.479V16.4824C6.49805 16.8174 6.41488 17.109 6.24854 17.3574C6.08447 17.6035 5.84749 17.7949 5.5376 17.9316C5.2277 18.0661 4.85628 18.1333 4.42334 18.1333ZM7.36963 18V12.7671H8.58301V14.7905H8.64795C8.73226 14.5832 8.8667 14.418 9.05127 14.2949C9.23812 14.1696 9.46598 14.1069 9.73486 14.1069C10.0151 14.1069 10.2498 14.1639 10.439 14.2778C10.6304 14.3895 10.7751 14.5524 10.873 14.7666C10.971 14.9785 11.02 15.2371 11.02 15.5425V18H9.80664V15.8125C9.80664 15.5824 9.75765 15.4058 9.65967 15.2827C9.56396 15.1574 9.41357 15.0947 9.2085 15.0947C9.07861 15.0947 8.96696 15.1255 8.87354 15.187C8.78011 15.2485 8.70833 15.334 8.6582 15.4434C8.60807 15.5527 8.58301 15.6803 8.58301 15.8262V18H7.36963ZM12.958 18.0581C12.7165 18.0581 12.5034 18.0103 12.3188 17.9146C12.1343 17.8188 11.9896 17.6855 11.8848 17.5146C11.7822 17.3415 11.731 17.1398 11.731 16.9097V16.9028C11.731 16.6727 11.7891 16.4756 11.9053 16.3115C12.0238 16.1452 12.1958 16.0153 12.4214 15.9219C12.6493 15.8285 12.9261 15.7715 13.252 15.751L14.6772 15.6655V16.3457L13.4434 16.4243C13.2656 16.4357 13.13 16.4756 13.0366 16.5439C12.9432 16.6123 12.8965 16.7035 12.8965 16.8174V16.8242C12.8965 16.9427 12.9432 17.0373 13.0366 17.1079C13.13 17.1785 13.2531 17.2139 13.4058 17.2139C13.5334 17.2139 13.6473 17.1888 13.7476 17.1387C13.8501 17.0863 13.931 17.0168 13.9902 16.9302C14.0518 16.8413 14.0825 16.7422 14.0825 16.6328V15.4058C14.0825 15.2759 14.0358 15.1756 13.9424 15.105C13.8512 15.0321 13.7225 14.9956 13.5562 14.9956C13.3966 14.9956 13.2679 15.0218 13.1699 15.0742C13.0742 15.1266 13.0081 15.1995 12.9717 15.293L12.9648 15.3101H11.8677L11.8711 15.269C11.8939 15.0343 11.9782 14.8304 12.124 14.6572C12.2721 14.484 12.4738 14.3496 12.729 14.2539C12.9842 14.1559 13.2827 14.1069 13.6245 14.1069C13.9777 14.1069 14.2762 14.1582 14.52 14.2607C14.7661 14.3633 14.953 14.5114 15.0806 14.7051C15.2082 14.8988 15.272 15.1323 15.272 15.4058V18H14.0825V17.5283H14.0176C13.9606 17.6354 13.8797 17.7288 13.7749 17.8086C13.6724 17.8883 13.5505 17.9499 13.4092 17.9932C13.2702 18.0365 13.1198 18.0581 12.958 18.0581ZM17.5278 18.0581C17.2157 18.0581 16.9456 17.9806 16.7178 17.8257C16.4899 17.6685 16.3145 17.444 16.1914 17.1523C16.0706 16.8607 16.0103 16.5098 16.0103 16.0996V16.0928C16.0103 15.6803 16.0695 15.3283 16.188 15.0366C16.3088 14.745 16.4819 14.5228 16.7075 14.3701C16.9331 14.2152 17.2065 14.1377 17.5278 14.1377C17.701 14.1377 17.8605 14.165 18.0063 14.2197C18.1522 14.2721 18.2786 14.3485 18.3857 14.4487C18.4951 14.5467 18.5806 14.6663 18.6421 14.8076H18.707V12.7671H19.9204V18H18.707V17.4189H18.6421C18.5828 17.5534 18.5008 17.6685 18.396 17.7642C18.2912 17.8576 18.1659 17.9305 18.02 17.9829C17.8742 18.033 17.7101 18.0581 17.5278 18.0581ZM17.9756 17.0703C18.1283 17.0703 18.2593 17.0316 18.3687 16.9541C18.4803 16.8766 18.5658 16.7661 18.625 16.6226C18.6865 16.4767 18.7173 16.3035 18.7173 16.103V16.0962C18.7173 15.8934 18.6865 15.7202 18.625 15.5767C18.5635 15.4308 18.4769 15.3192 18.3652 15.2417C18.2559 15.1642 18.126 15.1255 17.9756 15.1255C17.8275 15.1255 17.6976 15.1654 17.5859 15.2451C17.4766 15.3226 17.3911 15.4342 17.3296 15.5801C17.2703 15.7236 17.2407 15.8945 17.2407 16.0928V16.0996C17.2407 16.3024 17.2703 16.4767 17.3296 16.6226C17.3911 16.7661 17.4766 16.8766 17.5859 16.9541C17.6953 17.0316 17.8252 17.0703 17.9756 17.0703ZM22.6343 18.0889C22.2355 18.0889 21.8926 18.0091 21.6055 17.8496C21.3206 17.6878 21.1007 17.4588 20.9458 17.1626C20.7909 16.8664 20.7134 16.512 20.7134 16.0996V16.0962C20.7134 15.686 20.7897 15.3328 20.9424 15.0366C21.0973 14.7381 21.3149 14.5091 21.5952 14.3496C21.8755 14.1878 22.207 14.1069 22.5898 14.1069C22.9727 14.1069 23.3042 14.1855 23.5845 14.3428C23.8647 14.5 24.0812 14.7222 24.2339 15.0093C24.3866 15.2964 24.4629 15.6336 24.4629 16.021V16.3696H21.3149V15.6655H23.8887L23.3281 16.3389V15.8569C23.3281 15.6632 23.2985 15.5015 23.2393 15.3716C23.18 15.2394 23.0968 15.1392 22.9897 15.0708C22.8849 15.0024 22.7619 14.9683 22.6206 14.9683C22.4793 14.9683 22.3551 15.0036 22.248 15.0742C22.141 15.1426 22.0566 15.2428 21.9951 15.375C21.9359 15.5072 21.9062 15.6678 21.9062 15.8569V16.3457C21.9062 16.5303 21.9359 16.6886 21.9951 16.8208C22.0544 16.953 22.1398 17.0544 22.2515 17.125C22.3654 17.1934 22.501 17.2275 22.6582 17.2275C22.7926 17.2275 22.9054 17.207 22.9966 17.166C23.09 17.1227 23.1629 17.0749 23.2153 17.0225C23.27 16.9701 23.3053 16.9279 23.3213 16.896L23.3315 16.8823L24.439 16.8789L24.4287 16.9199C24.4036 17.0316 24.3524 17.1558 24.2749 17.2925C24.1997 17.4269 24.0915 17.5545 23.9502 17.6753C23.8112 17.7961 23.6335 17.8952 23.417 17.9727C23.2005 18.0501 22.9396 18.0889 22.6343 18.0889ZM25.2183 18V14.1958H26.4316V14.8008H26.4966C26.5535 14.5911 26.6618 14.4282 26.8213 14.312C26.9831 14.1958 27.1847 14.1377 27.4263 14.1377C27.5015 14.1377 27.5744 14.1434 27.645 14.1548C27.7157 14.1639 27.7806 14.1787 27.8398 14.1992V15.2246C27.7601 15.2018 27.6769 15.1847 27.5903 15.1733C27.5037 15.1619 27.4183 15.1562 27.334 15.1562C27.1449 15.1562 26.9831 15.1893 26.8486 15.2554C26.7142 15.3192 26.6105 15.4137 26.5376 15.5391C26.467 15.6621 26.4316 15.8125 26.4316 15.9902V18H25.2183Z" fill="white"/>
<g clip-path="url(#clip0_401_4)">
<path d="M26.185 37.3425C26.3875 37.8525 26.5 38.415 26.5 39C26.5 40.3275 25.9225 41.5275 25 42.345M25 42.345C24.179 43.0906 23.109 43.5025 22 43.5C19.5175 43.5 17.5 41.4825 17.5 39C17.5 36.93 18.91 35.175 20.815 34.6575M25 42.345C25.821 43.0906 26.891 43.5025 28 43.5C30.4825 43.5 32.5 41.4825 32.5 39C32.5 36.93 31.09 35.175 29.185 34.6575M20.5 33C20.5 34.1935 20.9741 35.3381 21.818 36.182C22.6619 37.0259 23.8065 37.5 25 37.5C26.1935 37.5 27.3381 37.0259 28.182 36.182C29.0259 35.3381 29.5 34.1935 29.5 33C29.5 31.8065 29.0259 30.6619 28.182 29.818C27.3381 28.9741 26.1935 28.5 25 28.5C23.8065 28.5 22.6619 28.9741 21.818 29.818C20.9741 30.6619 20.5 31.8065 20.5 33Z" stroke="#3E63DD" stroke-width="2" stroke-linecap="round" stroke-linejoin="round"/>
</g>
<defs>
<clipPath id="clip0_401_4">
<rect width="18" height="18" fill="white" transform="translate(16 27)"/>
</clipPath>
</defs>
</svg>
