<svg width="28" height="28" viewBox="0 0 28 28" fill="none" xmlns="http://www.w3.org/2000/svg">
<path d="M19.8994 24C22.1086 24 23.8994 22.2091 23.8994 20C23.8994 17.7909 22.1086 16 19.8994 16H19.6797L13.878 21.798C13.636 22.0399 13.5 22.3391 13.5 22.6813C13.5 23.3936 14.0774 24 14.7897 24H19.8994Z" fill="#FFA726"/>
<path d="M15.2839 6.95882L14.2291 8.01357C13.7633 8.48107 13.5012 9.11381 13.5 9.7738V18.0119C13.5 19.0666 13.5 19.5939 13.8135 19.7199C14.1271 19.8459 14.492 19.4653 15.2219 18.704L21.0599 12.6144C22.5819 11.0269 22.5554 8.51391 21.0003 6.95883C19.4218 5.38026 16.8624 5.38026 15.2839 6.95882Z" fill="#B47CFF"/>
<path fill-rule="evenodd" clip-rule="evenodd" d="M12 8V20C12 22.2091 10.2091 24 8 24C5.79086 24 4 22.2091 4 20V8C4 5.79086 5.79086 4 8 4C10.2091 4 12 5.79086 12 8ZM8 21C8.55228 21 9 20.5523 9 20C9 19.4477 8.55228 19 8 19C7.44772 19 7 19.4477 7 20C7 20.5523 7.44772 21 8 21Z" fill="#2095F4"/>
</svg>
