<?xml version="1.0" encoding="UTF-8"?><svg id="_层_1" xmlns="http://www.w3.org/2000/svg" viewBox="0 0 446.39 458.52"><defs><style>.cls-1{fill:#231815;}</style></defs><circle class="cls-1" cx="312.64" cy="194.45" r="16.18"/><path class="cls-1" d="M0,269C0,147.87,98.2,49.66,219.34,49.66c4.34,0,8.65,.14,12.93,.39V0c118.25,0,214.12,96.71,214.12,214.97,0,18.67-2.39,36.78-6.88,54.04H74.36l-13.6,.08c0,70.84,57.43,128.27,128.27,128.27,19.33,0,37.67-4.28,54.11-11.95l2.58,12.28c1.11,5.29,7.8,7.01,11.32,2.91l8.63-10.04c1.4-1.63,3.51-2.46,5.64-2.23l13.16,1.41c5.37,.58,9.07-5.26,6.26-9.87l-6.89-11.31c-1.12-1.83-1.26-4.1-.38-6.06l5.41-12.08c2.21-4.93-2.2-10.25-7.45-9.01l-12.88,3.05c-2.09,.5-4.29-.07-5.88-1.51l-9.82-8.88c-4.01-3.62-10.43-1.08-10.87,4.31l-1.08,13.2c-27.38-1.59-42.41-25.96-39.3-46.15h120.96c31.77,0,46.17,31.96,33.02,54.04-32.54,57.03-88.25,97.95-166.38,99.04C84.81,459.96,0,373.49,0,269.09m364.69-97.7c0-41.46-33.61-75.08-75.08-75.08s-75.08,33.61-75.08,75.08,33.61,75.08,75.08,75.08,75.08-33.61,75.08-75.08Z"/></svg>